<svg id="Layer_1" data-name="Layer 1" xmlns="http://www.w3.org/2000/svg" viewBox="0 0 765.09 764"><defs><style>.cls-1{fill:#fff;stroke:#000;stroke-miterlimit:10;}.cls-2{fill:#a9a9a9;fill-rule:evenodd;}</style></defs><rect class="cls-1" x="166.51" y="175.57" width="446" height="436"/><path class="cls-2" d="M372,64.61c-68.54,6-129.87,26.89-183,62.31-31,20.68-56.26,42.72-78.15,68.22C59.66,254.78,29.58,321.61,19.49,398.06c-7.3,55.39-1.13,117.79,16.85,170.44a391.14,391.14,0,0,0,87.57,143.76A383.19,383.19,0,0,0,303.73,816.9c35.66,9.13,55.49,11.53,95.27,11.53s59.61-2.4,95.27-11.53A382.38,382.38,0,0,0,742,615.5c12.81-26.06,20.12-45.76,27.46-74A381.71,381.71,0,0,0,754,304c-25.47-63.61-69.8-121.56-124-162.14-43.44-32.5-85.65-52.94-135.92-65.81C460.85,67.54,440.79,65,404.5,64.54c-15.4-.18-30-.15-32.5.07M270.59,302.48c-11.31,4.65-17.81,14.45-17.91,27a25,25,0,0,0,2.69,12c2.43,5.32,8.37,11.64,52.16,55.5L357,446.5,307.53,496c-43.85,43.91-49.73,50.18-52.16,55.5-7.14,15.62.1,33.41,16,39.36a28.6,28.6,0,0,0,21.29,0c5.48-2,8.95-5.27,56-52.16l50.2-50,47.8,47.07c26.28,25.9,49.34,48.7,51.24,50.67C502.31,591,510.3,594,517.88,594c10.88,0,22.22-7.88,26.73-18.58a31.52,31.52,0,0,0,1.67-10.51c0-12.25.44-11.75-55.15-67.91l-50-50.5L490.51,397c43.71-43.82,49.69-50.19,52.12-55.49,7.14-15.61-.09-33.41-16-39.36-8.21-3.08-14.71-2.81-22.63.92-5.89,2.78-11.09,7.65-55.75,52.23L399,404.45l-49.25-49.16c-44.66-44.58-49.86-49.45-55.75-52.23-8.25-3.88-15-4.05-23.41-.58" transform="translate(-16.49 -64.43)"/></svg>