<svg id="Layer_1" data-name="Layer 1" xmlns="http://www.w3.org/2000/svg" viewBox="0 0 823.75 823.11"><defs><style>.cls-1{fill:#fff;stroke:#000;stroke-miterlimit:10;}.cls-2{fill:#555555;fill-rule:evenodd;}</style></defs><path class="cls-1" d="M98,726c-8,2,365-350,365-350l-42-55,29-117.87,79,32.8S680,95,682,90.37,800,78,800,78l37,100L646,348.39S678,404,694.51,437,651,507,610,495s-73-58-73-58L206,756s-46,59-84,27" transform="translate(-42 -32.06)"/><path class="cls-2" d="M727.32,33.1C718.59,34.56,703,40,693.57,44.8a112.65,112.65,0,0,0-28.22,21.33c-2.84,3-27.09,33.7-53.89,68.32s-49.69,63.74-50.85,64.69c-5.41,4.43-11,6.33-19.61,6.65l-8.5.32-6-5.4c-13.24-11.92-26.91-19-43.43-22.39-9.11-1.89-30.8-1.34-39.09,1-18.77,5.28-32.52,13.92-44.88,28.2-5.91,6.83-13.62,19.74-16.12,27-7.53,21.85-6.46,47,2.85,66.89,5.78,12.31,10.64,18.87,25.06,33.81l13,13.44L256.36,516.07c-92.13,92.09-169.51,170.21-172,173.6-8.24,11.42-19.07,37.1-26,61.69C50.9,778,42,819.11,42,827.17c0,7,4.7,16.63,10.36,21.27,9.84,8.06,16.72,8.57,43.14,3.18,50.43-10.3,89.85-23.46,109.62-36.61,4.39-2.92,59-56.83,175.05-172.8L548.84,473.66,562.67,487c7.61,7.34,17.07,15.46,21,18.07A88.76,88.76,0,0,0,683,504c6.55-4.49,18.46-16.56,22.92-23.21,22.33-33.31,19.2-77.54-7.67-108.09L692,365.54v-7.09c0-9,2.22-16.49,6.18-21,1.7-1.94,31.94-25.87,67.21-53.19S831,233,832.92,231.05a121,121,0,0,0,31.72-63.41c1.88-10.71,1.31-31.06-1.17-41.64-5.63-24.07-14.47-40.75-30.38-57.29C815.2,50.1,795.52,39.23,770.14,34c-10.06-2.1-32.67-2.55-42.82-.85M738.87,91C726.62,92.92,716,98.19,708.4,106.2c-2.26,2.37-26.19,32.87-53.17,67.8-50.63,65.52-54,69.42-67.34,77.65l-6,3.71,30.26,30.27,30.26,30.27,3.05-5.5c7.13-12.83,11-16.23,79.64-69.43,36.21-28.08,67.37-52.85,69.26-55.06A61.35,61.35,0,0,0,801,175.35c11.36-23.07,6.75-48.86-12-67.39C775.26,94.43,756.93,88.23,738.87,91M454,238.08a31.33,31.33,0,0,0-14.61,14.42c-3.34,7.05-3.34,18,0,25,1.91,4,19.56,22.13,89.74,92.14,83.27,83.07,87.62,87.24,93.14,89.25,14.79,5.39,29.42-.51,36.88-14.89,3.07-5.93,3.29-18.42.42-24.5-1.28-2.71-30-32.15-89-91.35-70-70.21-88.08-87.83-92.1-89.74-6.64-3.17-17.88-3.33-24.5-.33M300.28,555.25C153.07,702.5,134.81,721.1,132.66,726a50,50,0,0,0-4.49,23.32c.54,8.52,4.12,13.94,11.91,18,4.92,2.57,6.07,2.78,12.42,2.25a55.52,55.52,0,0,0,20.5-5.46c3.43-1.62,43.7-41.32,169.5-167.12l165-165-21-21-21-21L300.28,555.25" transform="translate(-42 -32.06)"/></svg>