<svg xmlns="http://www.w3.org/2000/svg" width="512" height="284" viewBox="0 0 512 284" version="1.1"><path d="M 214 32 L 214 46 163.517 46 L 113.034 46 110.415 40.750 C 101.455 22.788, 80.243 15.411, 62.397 24.050 C 51.133 29.503, 42.812 45.323, 44.355 58.352 C 46.305 74.812, 60.330 87.680, 77.525 88.783 C 91.177 89.659, 101.418 84.154, 108.500 72.132 L 111.500 67.040 139.500 67.054 L 167.500 67.067 162.125 70.284 C 142.986 81.735, 131.450 90.690, 118.408 104.217 C 96.171 127.283, 79.432 156.940, 71.956 186.518 C 68.618 199.723, 67.351 208.456, 66.424 224.659 L 65.727 236.818 68.318 239.409 C 70.210 241.301, 71.949 242, 74.766 242 C 82.033 242, 84.478 237.490, 85.341 222.500 C 87.923 177.600, 118.890 123.706, 156.594 98.495 C 174.413 86.580, 207.772 71.547, 212.429 73.334 C 213.367 73.694, 214.133 76.057, 214.574 79.947 L 215.258 86 248.989 86 L 282.720 86 283.285 80.526 C 283.596 77.515, 284.135 74.590, 284.484 74.026 C 287.216 69.606, 322.327 83.309, 341.923 96.443 C 381.219 122.780, 404.676 161.743, 412.996 214.500 C 415.470 230.190, 417.279 236.814, 420.055 240.342 C 423.844 245.159, 430.927 242.909, 434.653 235.704 C 437.471 230.255, 434.951 208.025, 428.931 185.209 C 420.731 154.135, 405.821 127.372, 384.097 104.735 C 373.489 93.681, 365.619 87.244, 348.835 75.895 L 335.500 66.879 365.349 67.190 L 395.198 67.500 397.349 70.290 C 405.814 81.269, 410.522 84.598, 421.693 87.508 C 429.433 89.524, 433.893 89.386, 440.465 86.927 C 456.577 80.899, 466.039 65.192, 463.116 49.328 C 460.995 37.813, 455.372 29.153, 447.091 24.646 C 429.505 15.075, 405.503 22.845, 397.076 40.838 L 394.658 46 339.329 46 L 284 46 284 32 L 284 18 249 18 L 214 18 214 32 M 235 51 L 235 66 248.500 66 L 262 66 262 51 L 262 36 248.500 36 L 235 36 235 51 M 71.367 42.918 C 66.863 45.664, 65 48.835, 65 53.755 C 65 63.025, 69.615 68.004, 78.200 67.996 C 88.646 67.987, 95.767 57.670, 91.298 49.020 C 87.497 41.662, 78.130 38.794, 71.367 42.918 M 422.395 42.901 C 412.243 49.091, 412.892 62.411, 423.576 67.137 C 433.071 71.337, 443.007 64.769, 442.996 54.300 C 442.986 43.970, 431.271 37.488, 422.395 42.901 M 229.004 100.750 C 229.019 103.660, 246.558 245.821, 247.633 251.750 C 247.957 253.537, 248.527 255, 248.900 255 C 249.273 255, 254.921 249.037, 261.453 241.750 C 278.916 222.267, 284.832 216, 285.764 216 C 286.764 216, 295.234 229.532, 307.503 250.730 C 312.455 259.286, 317.248 266.754, 318.154 267.325 C 319.426 268.128, 321.102 267.583, 325.513 264.932 C 328.654 263.045, 331.418 261.013, 331.655 260.418 C 331.891 259.823, 327.403 251.498, 321.681 241.918 C 311.734 225.265, 302 207.908, 302 206.826 C 302 205.947, 308.916 204.192, 327 200.485 C 346.180 196.554, 352 195.042, 352 193.994 C 352 192.718, 340.589 182.450, 328.500 172.847 C 314.506 161.732, 242.790 108.020, 235.574 103.250 C 230.632 99.984, 228.997 99.361, 229.004 100.750" stroke="none" fill="#f00474" fill-rule="evenodd"/></svg>