<svg xmlns="http://www.w3.org/2000/svg" viewBox="0 0 568.28 87.48"><defs><style>.cls-1{fill:#381072;}.cls-2{fill:#ee0074;}</style></defs><g id="Layer_2" data-name="Layer 2"><g id="svg12"><g id="logo-group"><path id="path81726" class="cls-1" d="M188.81,42.12q.18-1.35,2.07-1.35,1.35,0,1.53,1.08V43A36.09,36.09,0,0,0,194,52.65a13.5,13.5,0,0,0,5,7.38,14.38,14.38,0,0,0,8.64,2.88,12,12,0,0,0,8.46-3.15,10.21,10.21,0,0,0,3.42-7.83,10.49,10.49,0,0,0-2.52-6.84q-2.16-2.7-8.73-5.94l-5.4-2.7q-15.3-7.56-15.3-19.17A16.25,16.25,0,0,1,193,5a18.13,18.13,0,0,1,13-5,23.47,23.47,0,0,1,12.42,3.33,7.22,7.22,0,0,0,3.15,1.35,2.19,2.19,0,0,0,2-1.35l.9-2.07q.27-.54,1.35-.54,2.07,0,2.07,1.53v.63A78.24,78.24,0,0,0,227,14l.27,6.12v.63q0,1.8-2,1.8-1.26,0-2.07-2.25-.72-2.61-1.35-4.5a22.65,22.65,0,0,0-1.53-3.69,13.76,13.76,0,0,0-5.22-6,13.19,13.19,0,0,0-7.2-2.25,9.27,9.27,0,0,0-6.57,2.43,7.86,7.86,0,0,0-2.52,6,8.23,8.23,0,0,0,2.52,5.85,47.74,47.74,0,0,0,9.36,6L215,26.37a37.47,37.47,0,0,1,12.24,9.54q4.5,5.49,4.5,11.07,0,7.83-6.57,13.86a21.89,21.89,0,0,1-15.3,5.94,27.06,27.06,0,0,1-7.38-1,29.56,29.56,0,0,1-7.11-3.24l-2.79-1.71a4.16,4.16,0,0,0-1.89-.72q-.81,0-2.34,1.62a2.11,2.11,0,0,1-1.26.63l-1.26-.27q-1.08-.45-1.08-1.17l.18-1q2.07-5.49,3.87-17.82Z"/><path id="path81728" class="cls-1" d="M252.65,59l-12-28.44a18.55,18.55,0,0,0-1.62-3.42,7,7,0,0,0-1.62-1.8,9,9,0,0,0-3.24-1.71l-1.08-.27A1.37,1.37,0,0,1,232,22.05q0-2.16,1.53-2.16l4.5.36,5.58.09a96.18,96.18,0,0,0,13.05-.63l.36-.09.36-.09q1.35,0,1.35,1.89,0,1.35-2.79,2-3.15.54-3.15,3.06a9.8,9.8,0,0,0,1,3.78L263.9,55.08l6.66-15q4.05-9.45,4.05-13.32,0-2.34-3.87-3.15a8.54,8.54,0,0,1-2.43-.54q-.36-.27-.45-1.35,0-1.89,1.62-1.89l3.24.27,6.39.27h3.24a6.32,6.32,0,0,1,1.08-.18l2.79-.27q1.44,0,1.44,1.62,0,1.26-1.71,1.8a9,9,0,0,0-3,1.35,9.53,9.53,0,0,0-2.7,3.51l-2.43,6.3-3.06,6.84-3.24,7.83-4.32,9.63L265.52,63q-1.17,3-2.16,3.15l-3.33.36-1.26.09a5.14,5.14,0,0,1-2.43-.45,4.79,4.79,0,0,1-1.62-2.25Z"/><path id="path81730" class="cls-1" d="M295.58,52.92l-3.51-2.25a15.64,15.64,0,0,1-6-13,16.61,16.61,0,0,1,6.3-13,21.48,21.48,0,0,1,6.93-4,25.82,25.82,0,0,1,8.55-1.35,27.16,27.16,0,0,1,6.75.9,21.34,21.34,0,0,1,6.93,3.06q6.3-5.58,10-5.58a5.38,5.38,0,0,1,3.69,1.35,4.17,4.17,0,0,1,1.62,3.33,3.57,3.57,0,0,1-1.08,2.43A3.16,3.16,0,0,1,333.38,26a4.87,4.87,0,0,1-2-.36L329.78,25a6.81,6.81,0,0,0-2.52-.54,4,4,0,0,0-2.61,1.44A17.32,17.32,0,0,1,329,37.53a16.33,16.33,0,0,1-5.85,13q-5.76,4.95-15.12,4.95a29.41,29.41,0,0,1-8-1.17Q296.3,57,296.3,59q0,2.7,5.13,2.7l5.67.18h2.34l4-.09H316q18.27,0,18.27,10.8,0,6.84-7.11,10.8t-19.44,4A47.61,47.61,0,0,1,291.17,85q-6.66-2.43-6.66-6.21a4.13,4.13,0,0,1,1.35-3,5.26,5.26,0,0,1,3.42-1.17,6.73,6.73,0,0,1,3.87,1.62l5.13,4q4,3.15,12.51,3.15a22,22,0,0,0,10.44-2.25q4.23-2.16,4.23-5.31,0-5.76-12.42-5.76h-6.39a68.82,68.82,0,0,1-12.6-.9,9.67,9.67,0,0,1-4.77-2.34,5,5,0,0,1-1.89-3.69q0-3.24,8.19-10.26Zm3-16.29v.72q0,14.31,8.64,14.31a8.26,8.26,0,0,0,4.95-1.26q1.71-1.35,3-5a21.64,21.64,0,0,0,1.35-7.29q0-6.93-2.52-10.8a7.48,7.48,0,0,0-6.66-4,7.4,7.4,0,0,0-6.39,3.6q-2.34,3.6-2.34,9.72Z"/><path id="path81732" class="cls-1" d="M331.36.72q2.88,0,7.38-.27T345,.18l5.58.09,12.78.45L375.55.45l3.06-.09L382,.27l13,.27L395.08,3V4.68a63.69,63.69,0,0,0,.27,7l.54,4.59q0,1.62-2,1.62a2,2,0,0,1-2.07-1.26l-.72-3.6a10.6,10.6,0,0,0-3.69-5.85q-3.6-2.79-10.17-2.79-3.87,0-5.31,1.35t-1.44,5.31V53.64q0,5.94,1.26,7.56a5.39,5.39,0,0,0,2.07,1.35,11.88,11.88,0,0,0,3.51.45Q381,63,381,64.8q0,1.62-1.17,1.71h-.54q-.36-.09-2.07-.36a23.26,23.26,0,0,0-3.78-.27l-10.71-.27q-5.67,0-8.55.27l-6.48.63q-1.44,0-1.44-1.62,0-1.35,1.53-1.62h1.35q1.08-.27,1.62-.36,4-.63,4.95-2.7a4.51,4.51,0,0,0,.72-2.7V9.72a11.21,11.21,0,0,0-.27-2.34,3.33,3.33,0,0,0-2-2.25,10.11,10.11,0,0,0-4-.63q-6.84,0-10.44,2.79t-4.77,9.36q-.27,1.62-1.71,1.62-1.89,0-2-1.26v-.36l.09-4.5V5Z"/><path id="path81734" class="cls-1" d="M403.27,35.1V55.44q0,4.05,1.53,5.67.63.9,3.78,1.35t3.24,1.89q0,2.16-1.71,2.16l-.45-.18-4.41-.54-5.76-.18a109.41,109.41,0,0,0-15.39.72l-.54.18q-1.17,0-1.17-1.71,0-1.44,2-1.71a12.52,12.52,0,0,0,4-.81q2.34-.81,2.34-6.84V35.64q0-4.14-1.35-5.94t-4.59-1.8q-2.16,0-2.16-1.17a2.17,2.17,0,0,1,1.62-2.25l2.34-.63,13.05-4.05h3.78v9.63a47.37,47.37,0,0,1,6.93-7.56,9.74,9.74,0,0,1,6.21-2.52,7.54,7.54,0,0,1,5.13,1.8,5.21,5.21,0,0,1,2.07,4.32q0,5.22-4.5,5.22a5,5,0,0,1-3.15-1.35,8.15,8.15,0,0,0-3.78-2.25q-3,0-9,8Z"/><path id="path81736" class="cls-1" d="M449.6,37.8V31.41q0-4.05-1.08-5.67a6.54,6.54,0,0,0-5.67-2.61q-4.86,0-6.48,5.67a10.34,10.34,0,0,1-2.16,4.41,4.87,4.87,0,0,1-3.6,1.26,5.49,5.49,0,0,1-3.6-1.26A4.48,4.48,0,0,1,425.57,30q0-4.23,6.12-7.38a29.75,29.75,0,0,1,14.13-3.24,20.13,20.13,0,0,1,12.87,4q3.6,2.88,3.6,8.82V55.8a10,10,0,0,0,.45,3.87,3.25,3.25,0,0,0,3.15,1.71,5,5,0,0,0,2.16-.63l1.17-.81.72-.18a6.1,6.1,0,0,1,.9.45l.45.81a9.81,9.81,0,0,1-.45,1.17q-2.79,4.68-10.71,4.68a15.82,15.82,0,0,1-5.76-1.08,12.41,12.41,0,0,1-5.22-4.68l-2.61,2.07a19.57,19.57,0,0,1-11.34,3.6,12.26,12.26,0,0,1-8.91-3.51,12.49,12.49,0,0,1-3.51-9.09,11.6,11.6,0,0,1,5-10.08q3.51-2.43,11.34-3.78l4.86-.81a22.41,22.41,0,0,0,5.67-1.71Zm-.09,12.33V41.49q-8.37,2.16-11.25,4.5t-2.79,6.93q0,7.92,6.39,7.92A6.89,6.89,0,0,0,448,57.51q1.53-2.52,1.53-7.38Z"/><path id="path81738" class="cls-1" d="M473.16,43.83a23.18,23.18,0,0,1,7.29-17.55q7.29-6.93,18.36-6.93a25.65,25.65,0,0,1,13,3.24q5.67,3.24,5.67,7.47a3.76,3.76,0,0,1-1.35,2.79,5,5,0,0,1-3.24,1.08q-3,0-6.21-4.59a19.76,19.76,0,0,0-4.23-4.68,7.85,7.85,0,0,0-4.68-1.35,9.8,9.8,0,0,0-8.64,4.59Q486,32.4,486,40.5q0,9.18,4.23,14.94a13.43,13.43,0,0,0,11.25,5.76q7.29,0,13.86-5.76l1.26-.63q2.07,0,2.07,1.89,0,1.44-4.5,4.59a29,29,0,0,1-17.55,5.58q-10.71,0-17.1-6.21t-6.39-16.83Z"/><path id="path81740" class="cls-1" d="M535.52,46.62Q540.38,59.49,552,59.49a20.26,20.26,0,0,0,13.14-4.86,4.06,4.06,0,0,1,1.44-.72q1.71,0,1.71,1.62t-3.15,4q-9.09,7.29-19.62,7.29t-17.1-6.48q-6.48-6.57-6.48-17.28,0-10.35,6.75-17t17.46-6.75a21.84,21.84,0,0,1,12.33,3.51,20.35,20.35,0,0,1,2.52,2,16.09,16.09,0,0,1,2.34,2.52q3.24,4,3.24,5.94a1.49,1.49,0,0,1-.72,1.35L563,35.73Zm-2.43-11.16a30.35,30.35,0,0,0,1.08,7l15.21-5.94q2.79-1.08,2.88-2.34,0-2.61-3.33-6.48t-7.47-4a7.28,7.28,0,0,0-6.21,3.06q-2.16,3.06-2.16,8.64Z"/><path id="icon" class="cls-2" d="M65.52,2.73H54.57v9.38H21.91l-.13-.46c-.07-.25-.2-.67-.29-.92S21.18,10,21,9.61a11.06,11.06,0,0,0-.68-1.18c-.2-.3-.54-.76-.76-1s-.59-.65-.82-.87-.55-.49-.72-.62l-.64-.48c-.2-.13-.55-.35-.8-.49a10.34,10.34,0,0,0-1-.5,10.62,10.62,0,0,0-1-.4l-.79-.23c-.19,0-.57-.13-.84-.17a11.16,11.16,0,0,0-1.15-.13,7.49,7.49,0,0,0-1.34,0,11.93,11.93,0,0,0-1.2.13c-.28.05-.73.15-1,.23s-.69.21-.92.29-.71.3-1.08.48A12,12,0,0,0,5,5.33a10.87,10.87,0,0,0-1,.71,11.29,11.29,0,0,0-.91.84c-.27.28-.61.65-.75.83s-.42.56-.6.84-.47.8-.65,1.16-.4.86-.48,1.08a8.55,8.55,0,0,0-.29.93c-.08.28-.18.74-.23,1A11.49,11.49,0,0,0,0,13.92a7.72,7.72,0,0,0,0,1.36,11.81,11.81,0,0,0,.13,1.18c0,.27.15.73.23,1a8.35,8.35,0,0,0,.29.92c.08.23.3.72.48,1.08a11,11,0,0,0,.67,1.19c.19.29.46.66.6.84s.52.58.85.92.75.72.92.85.54.4.82.59.75.46,1.05.61.72.35,1,.44a7.93,7.93,0,0,0,.9.31c.25.08.7.19,1,.25s.71.13.94.16.8.05,1.27.05a12.29,12.29,0,0,0,1.38-.07c.29,0,.74-.12,1-.18s.76-.2,1.1-.31a11.59,11.59,0,0,0,1.22-.5c.33-.16.78-.39,1-.52s.58-.37.83-.55.63-.5.87-.71.57-.53.73-.71.42-.48.58-.68.43-.58.61-.85a11.55,11.55,0,0,0,.63-1.11c.17-.33.35-.72.41-.86l.1-.26H40.29l-1.12.57-1.71.91-1.09.61-1.08.65L33.94,22c-.42.27-1.1.73-1.52,1s-1.16.83-1.66,1.2-1.17.89-1.52,1.17-.86.69-1.14.94l-1.21,1c-.37.33-1,.89-1.37,1.25s-1.12,1.09-1.64,1.62-1.21,1.25-1.54,1.62-.86,1-1.17,1.31-.85,1-1.22,1.48-1,1.23-1.32,1.71-.89,1.22-1.18,1.64-.7,1-.89,1.31-.57.89-.83,1.3-.69,1.14-1,1.6-.68,1.2-.91,1.63S13.24,45,13,45.54s-.62,1.27-.79,1.66-.44,1-.57,1.3-.37.86-.5,1.21-.4,1-.58,1.5-.47,1.3-.64,1.83-.45,1.37-.6,1.88-.39,1.38-.53,2-.34,1.32-.41,1.67S8.14,59.55,8,60s-.22,1.17-.29,1.57-.17,1-.23,1.44-.15,1.09-.21,1.56-.13,1.17-.17,1.54S7.05,67.21,7,67.7,6.93,69.23,6.91,70s0,1.59,0,1.8a3.45,3.45,0,0,0,.11.68,3.53,3.53,0,0,0,.26.65,2.62,2.62,0,0,0,.55.71,4,4,0,0,0,.61.52,5.32,5.32,0,0,0,.61.26,2.4,2.4,0,0,0,.78.15,3.87,3.87,0,0,0,.71,0,3.58,3.58,0,0,0,.56-.16,3.65,3.65,0,0,0,.55-.29,3.3,3.3,0,0,0,.54-.46,3.14,3.14,0,0,0,.46-.7,3.61,3.61,0,0,0,.26-.73A11.83,11.83,0,0,0,13,70.54c0-.86.07-2,.1-2.47s.11-1.26.15-1.71.13-1.16.19-1.58.17-1.16.25-1.63.23-1.28.33-1.79.31-1.43.46-2,.39-1.52.54-2.05.43-1.42.63-2,.46-1.34.59-1.71l.47-1.21c.12-.29.32-.78.45-1.08s.36-.83.52-1.19.53-1.11.81-1.68.65-1.29.82-1.59.5-.91.76-1.37.68-1.15.93-1.55.65-1,.89-1.36.57-.86.76-1.12.58-.81.88-1.21.83-1.1,1.19-1.54.9-1.11,1.21-1.46.75-.87,1-1.13l1.15-1.22c.38-.4,1.11-1.12,1.6-1.59s1.11-1,1.37-1.26l1-.86c.29-.26.82-.69,1.15-1l1.19-.92,1.16-.85c.32-.23,1-.66,1.4-1s1.08-.71,1.41-.92.81-.5,1.07-.64.76-.45,1.13-.65,1.07-.59,1.56-.84l1.66-.82c.42-.2,1-.48,1.4-.63s.88-.38,1.19-.5L47.59,22l1.23-.45L50.4,21l1.71-.5c.38-.11,1-.28,1.49-.38l.88-.21.09,0v4.71h21.9V19.75l1,.22c.54.12,1.28.3,1.65.4l1.6.44c.52.15,1.38.42,1.92.6s1.38.48,1.87.66,1.31.5,1.8.71l1.33.57,1.23.57c.44.21,1.17.58,1.63.82l1.35.73c.29.16.8.45,1.13.65s1,.57,1.38.84l1.53,1,1.31.93c.31.22.85.63,1.2.91s1,.81,1.48,1.19l1.52,1.32c.38.34,1,1,1.43,1.35s1.07,1.06,1.46,1.47,1,1.09,1.37,1.51.94,1.1,1.27,1.51.85,1.06,1.14,1.45l.86,1.16c.18.25.51.74.75,1.09s.63,1,.88,1.36.66,1.07.9,1.48.62,1.09.85,1.5.67,1.28,1,1.92.68,1.41.81,1.71l.47,1.08.51,1.28c.16.4.39,1,.51,1.37s.35,1,.48,1.42.31,1,.38,1.19.19.65.27.94.25.9.36,1.37.3,1.23.4,1.69.24,1.14.31,1.52.18,1.06.25,1.5.17,1.18.23,1.63.14,1.23.19,1.73.1,1.22.12,1.58.07,1.37.09,2.23a12.32,12.32,0,0,0,.1,1.8,3.39,3.39,0,0,0,.15.45,2.84,2.84,0,0,0,.27.51,4,4,0,0,0,.41.51,4.63,4.63,0,0,0,.49.41c.14.09.37.22.51.29a3.67,3.67,0,0,0,.59.21,3.44,3.44,0,0,0,.77.08,4.49,4.49,0,0,0,.71-.06l.54-.17a3.49,3.49,0,0,0,.61-.34,3.7,3.7,0,0,0,.6-.5,4.88,4.88,0,0,0,.4-.52,3.27,3.27,0,0,0,.24-.5,3.53,3.53,0,0,0,.16-.58,12,12,0,0,0,0-1.54c0-.68,0-1.58-.07-2s-.08-1.23-.12-1.78-.12-1.33-.17-1.73-.12-1-.17-1.33-.12-.85-.17-1.15-.15-.91-.23-1.35-.24-1.26-.35-1.8-.32-1.42-.46-2-.39-1.48-.56-2.07-.42-1.42-.56-1.86-.42-1.23-.61-1.77-.52-1.39-.73-1.9-.53-1.29-.72-1.73-.56-1.25-.82-1.79-.62-1.27-.8-1.63L118,43.26,117.32,42c-.18-.32-.55-.94-.82-1.38s-.71-1.12-1-1.52-.7-1.05-1-1.44-.71-1-1-1.35-.71-.94-1-1.29-.82-1-1.21-1.51-.9-1.06-1.13-1.31L109.14,31c-.4-.42-1.16-1.2-1.7-1.73s-1.24-1.21-1.57-1.52-1-.89-1.46-1.29-1.19-1-1.59-1.32-1.13-.89-1.63-1.26S100,23,99.66,22.77s-1-.7-1.48-1S97,21,96.48,20.69l-1.71-1-1.75-1-1-.5s4.61,0,10.31,0h10.38l.18.42c.1.23.29.64.43.91s.38.67.53.9.43.61.62.85.6.69.92,1a13.33,13.33,0,0,0,1.07.94c.26.2.65.47.85.6s.58.33.82.46.62.3.84.39.61.23.86.31.67.2.94.26.71.14,1,.17a10,10,0,0,0,1.44.07,9.22,9.22,0,0,0,1.48-.07c.28,0,.67-.11.88-.16s.53-.13.73-.18.56-.18.81-.28a9.68,9.68,0,0,0,1-.42c.28-.13.59-.29.69-.35l.67-.43c.26-.18.65-.48.87-.66s.62-.56.9-.85.67-.74.88-1,.5-.71.65-1,.34-.6.43-.77.23-.5.33-.75.24-.62.31-.84.16-.55.21-.73.13-.58.18-.88a8.44,8.44,0,0,0,.09-1.7,10.26,10.26,0,0,0-.07-1.65c0-.26-.15-.76-.24-1.11s-.28-.92-.41-1.27A11.19,11.19,0,0,0,133,9.3c-.15-.27-.39-.67-.54-.89a9.3,9.3,0,0,0-.55-.76c-.16-.19-.47-.55-.69-.78s-.6-.58-.83-.77-.6-.47-.82-.62-.6-.39-.84-.53-.64-.34-.88-.45-.64-.27-.88-.36-.66-.21-.92-.28-.7-.16-1-.21-.83-.11-1.2-.13a7.72,7.72,0,0,0-1.36,0,10.34,10.34,0,0,0-1.14.13c-.27,0-.67.13-.9.18s-.61.18-.83.25-.62.23-.87.34a9.64,9.64,0,0,0-1,.48c-.28.16-.64.39-.82.5l-.65.49c-.19.15-.48.4-.65.55a8.44,8.44,0,0,0-.66.67c-.2.21-.49.57-.66.79s-.43.61-.58.86-.41.72-.57,1-.35.81-.45,1.08-.21.66-.26.86l-.1.35h-36V2.73Zm0,6.25h4.7v9.39H60.83V9Zm-54.41.78a7,7,0,0,1,.78.08c.16,0,.42.1.57.15a5.94,5.94,0,0,1,.63.27c.19.1.48.27.64.38s.4.3.52.41a4.54,4.54,0,0,1,.48.54c.14.18.33.45.41.58a5.89,5.89,0,0,1,.29.61,6,6,0,0,1,.22.63c0,.14.08.4.1.56a3.93,3.93,0,0,1,0,1.25c0,.16-.07.41-.1.56s-.14.43-.22.63-.21.46-.29.6-.27.4-.41.59a4.54,4.54,0,0,1-.48.54,5.88,5.88,0,0,1-.52.4,5.73,5.73,0,0,1-.64.39,4.24,4.24,0,0,1-.63.26,5.12,5.12,0,0,1-.56.15,4.18,4.18,0,0,1-.67.09,4,4,0,0,1-.77,0,4.87,4.87,0,0,1-.72-.13A5.7,5.7,0,0,1,9.05,19a6,6,0,0,1-.74-.4A5.15,5.15,0,0,1,7.5,18a5.1,5.1,0,0,1-.66-.8,6.78,6.78,0,0,1-.36-.71,5.58,5.58,0,0,1-.23-.69A5,5,0,0,1,6.13,15c0-.23,0-.6,0-.83a7.07,7.07,0,0,1,.11-.75c0-.18.16-.48.24-.68A5.26,5.26,0,0,1,6.84,12a4.7,4.7,0,0,1,.66-.81,5.15,5.15,0,0,1,.81-.69,7.75,7.75,0,0,1,.74-.4c.2-.08.51-.19.69-.24s.46-.1.62-.12a5.75,5.75,0,0,1,.75,0Zm112.06,0,.59,0a5.1,5.1,0,0,1,.68.13,4.38,4.38,0,0,1,.69.24,5.18,5.18,0,0,1,.73.39,6.24,6.24,0,0,1,.78.65,6.63,6.63,0,0,1,.64.76,6,6,0,0,1,.34.61c.06.13.15.37.21.53a5.15,5.15,0,0,1,.16.65,5.3,5.3,0,0,1,.06.85,5.43,5.43,0,0,1-.06.86,5.62,5.62,0,0,1-.16.65c-.06.17-.16.42-.23.57s-.23.41-.34.59a5.31,5.31,0,0,1-1.4,1.38,4.7,4.7,0,0,1-1.42.64,5.12,5.12,0,0,1-.72.13,3.92,3.92,0,0,1-.76,0,5.06,5.06,0,0,1-.68-.09,5.23,5.23,0,0,1-.63-.17l-.6-.26a5.85,5.85,0,0,1-.63-.38,6.13,6.13,0,0,1-.65-.56,5.16,5.16,0,0,1-.54-.65c-.11-.17-.27-.45-.36-.62a5.55,5.55,0,0,1-.41-1.23,5,5,0,0,1-.06-.88,4.82,4.82,0,0,1,.06-.87,5,5,0,0,1,.16-.61,5.08,5.08,0,0,1,.28-.67,4.33,4.33,0,0,1,.38-.64,6.34,6.34,0,0,1,.51-.61,7.1,7.1,0,0,1,.63-.53,5.85,5.85,0,0,1,.63-.38,4.36,4.36,0,0,1,.6-.26,3.86,3.86,0,0,1,.63-.17l.5-.09.39,0Zm-63.86,19s0,0,0,.06,1.33,11.32,2.94,25.08,3,25.07,3,25.16l0,.15,6.15-6.86c3.38-3.77,6.16-6.85,6.17-6.85s2.34,4,5.17,8.81,5.15,8.81,5.15,8.82L90,81.84c1.16-.68,2.1-1.26,2.09-1.28s-2.31-4-5.14-8.83-5.13-8.8-5.12-8.81l9-1.87,9-1.88s-8.62-6.53-20.23-15.24L59.3,28.71Z"/></g></g></g></svg>