<svg xmlns="http://www.w3.org/2000/svg" viewBox="0 0 1064.07 1064.86"><defs><style>.cls-1{fill:#fff;}.cls-2{fill:#040404;fill-rule:evenodd;}</style></defs><g id="Layer_1" data-name="Layer 1"><rect class="cls-1" x="275.03" y="462.96" width="515" height="153"/><path class="cls-2" d="M584.5,69.6C554,72.32,531.71,75.79,505,82c-95.92,22.17-184.36,71.43-255,142a526,526,0,0,0-66.56,81c-36.52,54.46-60.33,109.16-75.92,174.35C98.06,518.89,94,555.53,94,600.5s4,81.22,13.58,121.22C123,786.66,146.87,841.45,183.42,896A533.44,533.44,0,0,0,481,1112.89c77,22,160.89,26,240.5,11.47A531.22,531.22,0,0,0,1002,977c63.93-63.9,110.24-141.85,135-227.31,14.82-51.07,21-94.87,21-149.22,0-45-4.09-81.61-13.55-121.15-15.57-65.15-39.42-119.93-75.91-174.35-81.06-120.89-205.15-202.37-348-228.52-42.26-7.74-96-10.46-136-6.88M409,561.45a42.09,42.09,0,0,0-16.46,10.26A40.35,40.35,0,0,0,381.05,607c2.05,13.09,10.34,24.13,22.67,30.2l6.74,3.32H841.54l6.74-3.32c12.33-6.07,20.62-17.11,22.67-30.2,2.82-18.1-6.1-35-22.82-43.24l-6.59-3.24L627,560.32c-175-.15-215.17.06-218.07,1.13" transform="translate(-93.97 -68.04)"/></g></svg>